<svg xmlns="http://www.w3.org/2000/svg" xmlns:xlink="http://www.w3.org/1999/xlink" width="500" zoomAndPan="magnify" viewBox="0 0 375 374.999991" height="500" preserveAspectRatio="xMidYMid meet" version="1.0"><defs><clipPath id="3d51743fb9"><path d="M 55 13 L 336 13 L 336 340 L 55 340 Z M 55 13 " clip-rule="nonzero"/></clipPath><clipPath id="4f7a8b061f"><path d="M 52.371094 14.382812 L 318.984375 0.015625 L 337.183594 337.777344 L 70.570312 352.140625 Z M 52.371094 14.382812 " clip-rule="nonzero"/></clipPath><clipPath id="0893e37f77"><path d="M 52.371094 14.382812 L 318.984375 0.015625 L 337.183594 337.777344 L 70.570312 352.140625 Z M 52.371094 14.382812 " clip-rule="nonzero"/></clipPath></defs><g clip-path="url(#3d51743fb9)"><g clip-path="url(#4f7a8b061f)"><g clip-path="url(#0893e37f77)"><path fill="#f4f6fc" d="M 335.011719 313.074219 L 278.730469 274.21875 C 277.855469 273.613281 276.492188 272.5625 275.613281 271.863281 C 275.613281 271.863281 247.449219 248.507812 235.898438 238.753906 C 227.386719 231.636719 220.734375 226.105469 217.609375 223.5625 C 215.65625 221.984375 213.789062 220.308594 211.914062 218.445312 C 210.730469 217.292969 204.925781 208.351562 203.640625 207.109375 C 202.054688 205.421875 200.570312 203.816406 199.179688 202.300781 C 200.679688 202.410156 202.554688 202.496094 204.8125 202.839844 C 208.953125 203.367188 213.386719 200.695312 213.386719 200.695312 C 216.039062 199.617188 221.320312 200.546875 221.320312 200.546875 L 221.660156 201.652344 L 221.753906 201.648438 C 223.246094 196.425781 219.882812 194.640625 214.300781 193.351562 C 212.941406 192.398438 211.023438 191.472656 208.34375 190.308594 C 203.363281 188.050781 199.25 189.769531 196.21875 190.679688 C 195.207031 191.015625 192.03125 192.777344 189.6875 192.621094 C 186.34375 189.53125 183.039062 187.089844 179.09375 184.964844 C 175.917969 183.265625 169.917969 174.238281 162.917969 162.179688 C 159.832031 156.925781 156.617188 151.019531 153.304688 145.027344 C 146.867188 133.03125 141.394531 119.957031 135.757812 108.945312 C 132.929688 103.300781 129.761719 98.234375 127.65625 93.859375 C 123.777344 86.027344 121.832031 82.863281 121.832031 82.863281 C 121.222656 81.960938 120.707031 81.050781 120.609375 80.964844 C 120.507812 80.78125 119.886719 79.695312 119.367188 78.691406 L 86.902344 13.683594 C 86.378906 12.683594 85.917969 12.800781 85.886719 13.925781 C 85.886719 13.925781 85.078125 23.222656 89.277344 31.789062 C 92.957031 39.351562 109.304688 67.082031 109.304688 67.082031 C 109.820312 67.988281 109.824219 68.082031 109.214844 67.179688 L 75.894531 24.375 C 75.195312 23.570312 75.105469 23.667969 75.625 24.574219 L 107.773438 73.332031 C 108.46875 74.136719 108.976562 74.859375 108.976562 74.859375 C 108.976562 74.859375 108.285156 74.148438 107.5 73.441406 C 107.5 73.441406 63.113281 24.78125 64.167969 30.429688 C 65.085938 35.335938 98.316406 71.226562 98.316406 71.226562 C 99.015625 72.027344 99.015625 72.027344 98.136719 71.328125 L 61.457031 44.320312 C 60.585938 43.710938 60.496094 43.808594 61.28125 44.515625 L 90.125 71.761719 C 90.910156 72.464844 90.820312 72.5625 89.953125 72.050781 L 55.84375 51.074219 C 54.882812 50.5625 54.792969 50.664062 55.578125 51.367188 L 81.03125 72.90625 C 81.902344 73.511719 81.820312 73.703125 80.859375 73.195312 L 57.0625 61.574219 C 56.105469 61.15625 55.929688 61.355469 56.808594 62.054688 L 75.796875 76.367188 C 76.671875 76.972656 76.675781 77.066406 75.714844 76.558594 L 56.40625 68.433594 C 55.449219 68.019531 55.277344 68.308594 56.148438 68.914062 L 75.546875 82.082031 C 76.507812 82.59375 76.421875 82.785156 75.378906 82.464844 L 63.597656 78.800781 C 62.550781 78.480469 62.472656 78.765625 63.347656 79.375 C 63.347656 79.375 75.804688 88.613281 75.996094 92.15625 C 76.078125 93.742188 77.625 98.144531 77.625 98.144531 C 77.960938 99.15625 79.132812 100.121094 80.171875 100.347656 C 80.171875 100.347656 83.472656 100.917969 81.90625 101.28125 C 80.984375 101.519531 80.796875 101.527344 80.796875 101.527344 C 79.773438 101.582031 78.953125 102 79.164062 102.457031 C 79.371094 102.820312 80.382812 104.261719 81.148438 104.59375 C 81.914062 104.929688 82.125 105.382812 81.570312 105.507812 C 81.019531 105.628906 80.945312 106.007812 81.160156 106.558594 C 81.378906 107.105469 82.492188 108.730469 83.070312 109.074219 C 83.652344 109.414062 83.863281 109.871094 83.5 110.078125 C 83.136719 110.285156 82.976562 110.761719 83.085938 111.035156 C 83.191406 111.3125 84.355469 112.089844 85.289062 112.039062 C 86.21875 111.988281 86.429688 112.445312 85.808594 113.039062 C 85.09375 113.640625 84.976562 114.953125 85.398438 115.867188 C 85.824219 116.777344 86.339844 117.6875 86.34375 117.78125 C 86.441406 117.867188 87.796875 118.730469 88.820312 118.675781 C 89.847656 118.621094 90.414062 118.777344 90.058594 119.074219 C 89.699219 119.375 88.203125 121.046875 88.417969 121.59375 C 88.726562 122.140625 89.929688 123.664062 90.308594 123.738281 C 90.679688 123.714844 90.886719 124.078125 90.714844 124.371094 C 90.550781 124.753906 90.480469 125.222656 90.6875 125.585938 C 90.890625 125.855469 91.964844 126.734375 92.710938 126.691406 C 93.457031 126.652344 93.660156 127.015625 93.128906 127.511719 C 92.59375 128.007812 92.449219 128.765625 92.652344 129.128906 C 92.867188 129.582031 94.316406 130.535156 95.425781 130.285156 L 96.074219 130.160156 C 97.09375 130.011719 97.199219 130.285156 96.289062 130.707031 L 95.925781 130.914062 C 95.019531 131.429688 94.410156 132.210938 94.621094 132.667969 C 94.832031 133.125 96.285156 134.074219 97.296875 133.832031 C 98.3125 133.589844 98.519531 133.953125 97.714844 134.652344 C 97.007812 135.34375 96.597656 136.394531 97.003906 137.027344 C 97.320312 137.664062 98.882812 138.984375 99.800781 138.652344 C 100.625 138.328125 100.832031 138.691406 100.214844 139.378906 C 99.597656 140.066406 99.277344 141.113281 99.582031 141.5625 C 99.886719 142.015625 101.351562 143.152344 102.464844 142.996094 L 103.203125 142.863281 C 104.222656 142.714844 104.332031 142.992188 103.421875 143.414062 L 103.058594 143.621094 C 102.058594 144.140625 101.636719 145.003906 101.953125 145.644531 C 102.265625 146.28125 103.71875 147.230469 104.835938 147.171875 L 105.957031 147.109375 C 106.980469 147.054688 107.082031 147.238281 106.074219 147.570312 L 105.433594 147.792969 C 104.421875 148.128906 103.910156 148.996094 104.226562 149.726562 C 104.546875 150.457031 106.304688 151.859375 107.210938 151.34375 C 108.117188 150.828125 108.214844 150.914062 107.414062 151.613281 L 107.324219 151.710938 C 106.519531 152.410156 106.109375 153.460938 106.421875 154.003906 C 106.734375 154.640625 108.019531 155.976562 108.378906 155.675781 C 108.828125 155.371094 108.933594 155.550781 108.585938 156.039062 C 108.238281 156.523438 108.386719 157.546875 108.804688 158.363281 C 109.21875 159.089844 111.171875 160.667969 112.175781 160.238281 L 113.542969 159.605469 C 114.546875 159.175781 114.648438 159.359375 113.847656 160.054688 L 112.691406 161.148438 C 111.886719 161.84375 111.671875 163.070312 112.183594 163.886719 C 112.695312 164.699219 114.355469 166.011719 114.78125 165.242188 C 115.199219 164.378906 115.304688 164.558594 115.078125 165.597656 L 115.085938 165.691406 C 114.765625 166.738281 114.828125 167.855469 115.039062 168.3125 C 115.339844 168.671875 116.507812 169.542969 117.140625 169.136719 C 117.777344 168.820312 117.882812 169.09375 117.542969 169.675781 C 117.105469 170.257812 117.058594 171.101562 117.269531 171.558594 C 117.570312 171.917969 119.011719 172.679688 119.839844 172.449219 C 120.757812 172.121094 120.859375 172.300781 120.042969 172.71875 C 119.320312 173.226562 118.886719 173.808594 119.09375 174.171875 C 119.292969 174.441406 120.746094 175.390625 121.867188 175.425781 L 122.527344 175.484375 C 123.5625 175.613281 123.667969 175.890625 122.753906 176.21875 C 121.835938 176.550781 121.40625 177.226562 121.808594 177.765625 C 122.210938 178.304688 124.246094 179.691406 125.367188 179.632812 L 125.832031 179.605469 C 126.855469 179.550781 127.058594 179.820312 126.050781 180.25 C 125.140625 180.671875 124.507812 181.082031 124.613281 181.261719 C 124.714844 181.441406 125.953125 181.84375 126.976562 181.789062 C 128 181.734375 128.203125 182.003906 127.472656 182.324219 C 126.648438 182.648438 126.414062 183.503906 127.007812 184.125 C 127.507812 184.753906 129.644531 186.226562 130.574219 186.175781 C 131.507812 186.125 131.609375 186.308594 130.871094 186.441406 C 130.136719 186.667969 129.789062 187.152344 130.085938 187.511719 C 130.386719 187.871094 131.941406 189 132.796875 189.234375 C 133.648438 189.46875 133.746094 189.558594 132.992188 189.414062 C 132.238281 189.265625 132.167969 189.738281 132.769531 190.453125 C 133.460938 191.164062 133.898438 192.355469 132.855469 192.039062 L 106.59375 184.945312 C 105.546875 184.625 105.285156 184.921875 106.070312 185.625 C 106.070312 185.625 106.070312 185.625 105.152344 185.957031 C 104.972656 186.058594 104.972656 186.058594 104.972656 186.058594 C 104.597656 186.078125 104.328125 186.28125 104.242188 186.378906 C 104.15625 186.570312 104.183594 187.039062 104.375 187.121094 C 104.566406 187.203125 104.476562 187.300781 104.382812 187.308594 C 104.289062 187.3125 104.023438 187.511719 104.03125 187.699219 C 103.949219 187.890625 104.359375 188.617188 104.925781 188.679688 C 105.496094 188.835938 105.410156 189.027344 104.863281 189.246094 C 104.21875 189.464844 103.6875 189.960938 103.707031 190.335938 C 103.726562 190.707031 104.164062 191.902344 104.820312 191.957031 C 105.570312 192.011719 105.578125 192.105469 104.832031 192.144531 C 104.085938 192.183594 103.453125 192.59375 103.382812 192.972656 C 103.382812 192.972656 103.382812 192.972656 103.308594 193.347656 C 103.253906 194.101562 103.253906 194.101562 103.253906 194.101562 C 103.113281 194.949219 103.714844 195.664062 104.644531 195.613281 C 105.578125 195.5625 105.492188 195.757812 104.570312 195.992188 C 103.648438 196.230469 102.742188 196.746094 102.671875 197.125 C 102.597656 197.5 102.746094 198.523438 103.125 198.59375 C 103.5 198.667969 103.429688 199.046875 103.066406 199.253906 C 102.609375 199.464844 102.1875 200.328125 102.140625 201.171875 C 102.140625 201.171875 102.140625 201.171875 102.175781 201.824219 C 102.1875 202.011719 102.1875 202.011719 102.1875 202.011719 C 102.195312 202.199219 103.132812 202.242188 104.148438 202 L 104.609375 201.882812 C 105.628906 201.734375 105.730469 201.914062 104.726562 202.34375 L 103.917969 202.945312 C 102.914062 203.375 102.199219 203.972656 102.308594 204.25 C 102.414062 204.523438 102.828125 205.25 103.199219 205.230469 C 103.578125 205.300781 103.582031 205.394531 103.308594 205.503906 C 103.035156 205.613281 102.867188 205.996094 102.976562 206.269531 C 103.089844 206.636719 103.597656 207.359375 103.773438 207.164062 C 103.949219 206.964844 104.058594 207.242188 103.988281 207.710938 C 103.921875 208.183594 103.847656 208.5625 103.847656 208.5625 C 103.847656 208.5625 104.132812 208.640625 104.507812 208.710938 C 104.886719 208.785156 104.996094 209.058594 104.726562 209.261719 C 104.457031 209.464844 104.378906 209.746094 104.382812 209.839844 C 104.386719 209.933594 105.054688 210.179688 105.796875 210.046875 C 106.535156 209.910156 107.644531 209.664062 107.730469 209.566406 C 107.730469 209.566406 107.730469 209.566406 107.824219 209.5625 C 107.917969 209.558594 107.917969 209.558594 107.917969 209.558594 C 107.730469 209.566406 107.183594 209.785156 106.726562 209.996094 C 106.273438 210.207031 104.816406 210.941406 104.917969 211.121094 C 105.023438 211.300781 105.601562 211.644531 106.160156 211.613281 C 106.71875 211.585938 106.816406 211.671875 106.269531 211.890625 C 105.714844 212.011719 105.257812 212.226562 105.359375 212.3125 C 105.359375 212.3125 105.359375 212.3125 105.363281 212.40625 C 105.371094 212.59375 105.371094 212.59375 105.371094 212.59375 C 105.382812 212.777344 105.859375 212.941406 106.328125 213.007812 C 106.800781 213.078125 106.902344 213.257812 106.449219 213.46875 C 105.992188 213.679688 105.757812 214.535156 105.894531 215.371094 C 106.03125 216.109375 107.246094 217.914062 108.253906 217.488281 L 108.800781 217.269531 C 109.804688 216.84375 109.910156 217.023438 109.007812 217.632812 L 108.378906 218.132812 C 107.480469 218.742188 106.867188 219.523438 107.074219 219.886719 C 107.074219 219.886719 107.074219 219.886719 107.183594 220.164062 C 107.609375 221.167969 107.8125 221.4375 107.8125 221.4375 C 108.421875 222.339844 109.101562 222.863281 109.457031 222.472656 C 109.8125 222.171875 109.816406 222.265625 109.558594 222.652344 C 109.300781 223.039062 109.234375 223.605469 109.4375 223.875 C 109.640625 224.144531 110.976562 224.726562 112.003906 224.671875 L 112.1875 224.660156 C 113.214844 224.605469 113.316406 224.789062 112.402344 225.117188 C 111.484375 225.445312 110.960938 226.128906 111.363281 226.667969 C 111.765625 227.207031 113.304688 228.058594 114.109375 227.363281 L 114.730469 226.769531 C 115.535156 226.070312 115.632812 226.160156 114.929688 226.945312 L 114.226562 227.824219 C 113.527344 228.703125 113.105469 229.566406 113.308594 229.835938 C 113.417969 230.113281 114.289062 230.71875 114.839844 230.503906 C 115.386719 230.285156 115.488281 230.375 114.949219 230.777344 C 114.402344 231.085938 114.046875 231.386719 114.050781 231.480469 C 114.054688 231.574219 114.992188 231.617188 116.097656 231.277344 L 117.570312 230.917969 C 118.585938 230.675781 118.6875 230.855469 117.78125 231.371094 L 116.511719 232.09375 C 115.605469 232.613281 115.097656 233.574219 115.414062 234.210938 C 115.414062 234.210938 115.414062 234.210938 115.816406 234.75 C 116.121094 235.203125 116.121094 235.203125 116.121094 235.203125 C 116.523438 235.742188 117.546875 235.6875 118.269531 235.179688 C 119.082031 234.667969 119.085938 234.761719 118.464844 235.355469 C 117.75 235.957031 117.320312 236.632812 117.515625 236.808594 C 117.710938 236.984375 118.671875 237.496094 119.230469 237.464844 C 119.789062 237.433594 119.988281 237.613281 119.722656 237.90625 C 119.367188 238.207031 119.292969 238.582031 119.390625 238.671875 C 119.488281 238.761719 120.714844 238.976562 121.824219 238.726562 L 124.402344 238.027344 C 125.414062 237.785156 125.511719 237.875 124.515625 238.394531 L 122.609375 239.433594 C 121.703125 239.949219 120.980469 240.457031 121.179688 240.632812 C 121.179688 240.632812 121.179688 240.632812 121.28125 240.8125 C 121.480469 241.082031 121.480469 241.082031 121.480469 241.082031 C 121.6875 241.445312 122.433594 241.40625 122.976562 241.097656 C 123.523438 240.785156 123.714844 240.871094 123.277344 241.453125 C 122.835938 241.945312 122.59375 242.613281 122.695312 242.796875 C 122.800781 242.976562 123.664062 243.398438 124.117188 243.1875 C 124.671875 243.0625 124.773438 243.242188 124.417969 243.542969 C 124.066406 243.9375 124.007812 244.59375 124.3125 245.046875 C 124.617188 245.496094 125.949219 245.984375 126.652344 245.105469 L 127.445312 244.222656 C 128.148438 243.4375 128.339844 243.519531 127.832031 244.480469 L 127.070312 245.925781 C 126.558594 246.886719 126.535156 248.199219 127.039062 248.824219 C 127.039062 248.824219 127.039062 248.824219 127.535156 249.359375 C 127.632812 249.449219 127.632812 249.449219 127.632812 249.449219 C 127.730469 249.535156 128.277344 249.320312 128.8125 248.824219 C 129.347656 248.328125 129.445312 248.414062 129.015625 249.09375 C 128.578125 249.675781 128.519531 250.335938 128.722656 250.605469 C 128.921875 250.875 130.054688 251.09375 130.683594 250.59375 C 131.222656 250.191406 131.511719 250.359375 131.265625 251.027344 C 131.023438 251.695312 130.867188 252.265625 131.058594 252.347656 C 131.15625 252.4375 131.96875 251.925781 132.578125 251.050781 C 132.578125 251.050781 135.523438 246.777344 135.441406 246.96875 C 135.355469 247.160156 133.253906 251.484375 133.253906 251.484375 C 132.746094 252.445312 132.511719 253.300781 132.511719 253.300781 C 132.609375 253.386719 133.152344 253.078125 133.496094 252.5 C 133.84375 252.011719 134.183594 251.433594 134.277344 251.425781 C 134.191406 251.527344 134.023438 251.910156 133.769531 252.390625 C 133.515625 252.871094 134.664062 253.371094 135.269531 252.496094 L 154.320312 226.316406 C 154.925781 225.445312 155.75 225.117188 156.152344 225.660156 C 156.554688 226.199219 158.097656 227.050781 158.527344 226.371094 C 158.953125 225.601562 159.054688 225.78125 158.828125 226.730469 C 158.597656 227.675781 158.761719 228.976562 159.164062 229.515625 C 159.566406 230.054688 161.6875 231.25 162.695312 230.914062 C 163.707031 230.582031 164.003906 230.9375 163.394531 231.71875 C 162.78125 232.5 162.644531 233.441406 162.949219 233.894531 C 163.347656 234.339844 164.789062 235.105469 165.425781 234.789062 C 166.058594 234.382812 166.164062 234.5625 165.722656 235.054688 C 165.28125 235.546875 165.238281 236.484375 165.734375 237.015625 C 166.230469 237.550781 168.441406 238.742188 169.347656 238.222656 L 171.996094 237.054688 C 173 236.625 173.203125 236.894531 172.402344 237.6875 L 170.636719 239.558594 C 169.929688 240.34375 169.511719 241.207031 169.902344 241.5625 C 170.296875 241.914062 171.726562 242.492188 172.550781 242.164062 C 173.375 241.839844 173.472656 241.929688 172.746094 242.34375 C 172.027344 242.847656 171.691406 243.519531 172.082031 243.875 C 172.382812 244.230469 174.203125 245.070312 175.320312 245.007812 L 178.207031 244.851562 C 179.234375 244.796875 179.347656 245.164062 178.441406 245.683594 L 177.257812 246.308594 C 176.351562 246.824219 175.730469 247.417969 175.925781 247.59375 C 176.125 247.769531 177.539062 248.066406 178.460938 247.832031 C 179.378906 247.5 179.773438 247.855469 179.148438 248.449219 C 178.527344 249.042969 178.386719 249.894531 178.78125 250.246094 C 179.171875 250.597656 181.070312 251.152344 181.980469 250.726562 L 183.441406 250.085938 C 184.445312 249.660156 184.453125 249.753906 183.648438 250.449219 L 182.660156 251.160156 C 181.757812 251.769531 181.328125 252.445312 181.621094 252.710938 C 181.917969 252.976562 183.519531 253.261719 184.429688 252.839844 L 186.078125 252.191406 C 187.082031 251.761719 187.289062 252.125 186.484375 252.824219 L 185.777344 253.515625 C 185.070312 254.300781 184.933594 255.242188 185.613281 255.675781 C 185.613281 255.675781 185.613281 255.675781 186.09375 255.929688 C 186.671875 256.273438 186.671875 256.273438 186.671875 256.273438 C 187.347656 256.703125 188.75 256.722656 189.765625 256.480469 L 190.320312 256.355469 C 191.328125 256.019531 191.722656 256.375 191.109375 257.15625 C 190.5 257.9375 190.351562 258.691406 190.640625 258.863281 C 190.929688 259.035156 192.441406 259.328125 193.359375 258.996094 C 194.273438 258.667969 194.5625 258.839844 194.039062 259.519531 C 193.515625 260.203125 193.757812 261.21875 194.535156 261.738281 C 195.308594 262.257812 198.097656 263.699219 199.203125 263.449219 L 199.851562 263.324219 C 200.867188 263.082031 201.066406 263.351562 200.265625 264.046875 C 199.460938 264.746094 199.421875 265.777344 200.203125 266.390625 C 200.984375 267 203.5625 268.078125 204.171875 267.203125 L 204.347656 267.007812 C 205.050781 266.222656 205.148438 266.308594 204.734375 267.265625 L 204.570312 267.648438 C 204.058594 268.613281 204.121094 269.730469 204.609375 270.171875 C 205.101562 270.613281 207.191406 271.25 208.09375 270.640625 L 208.902344 270.035156 C 209.800781 269.425781 209.902344 269.511719 209.101562 270.304688 L 208.480469 270.898438 C 207.777344 271.683594 207.449219 272.542969 207.839844 272.894531 C 208.234375 273.25 210.039062 273.804688 211.042969 273.378906 L 213.425781 272.503906 C 214.433594 272.167969 214.53125 272.253906 213.535156 272.777344 L 211.714844 273.714844 C 210.808594 274.234375 210.476562 275 210.96875 275.441406 C 211.457031 275.878906 213.5625 276.796875 214.195312 276.386719 C 214.828125 275.980469 215.023438 276.15625 214.488281 276.652344 C 214.050781 277.144531 213.996094 277.894531 214.488281 278.335938 C 214.972656 278.683594 217.066406 279.410156 218.070312 278.984375 L 218.894531 278.660156 C 219.90625 278.324219 220.105469 278.59375 219.402344 279.378906 L 219.3125 279.476562 C 218.609375 280.265625 218.667969 281.382812 219.542969 281.988281 L 222.546875 283.980469 C 223.507812 284.488281 224.90625 284.414062 225.707031 283.714844 L 227.40625 282.3125 C 228.210938 281.617188 228.40625 281.792969 227.707031 282.671875 L 226.660156 284.039062 C 226.050781 284.910156 226.007812 285.847656 226.582031 286.097656 C 227.15625 286.347656 229.210938 286.332031 229.734375 285.648438 C 230.253906 284.871094 230.636719 285.039062 230.496094 285.886719 C 230.355469 286.738281 230.777344 287.648438 231.347656 287.804688 C 231.914062 287.960938 233.6875 287.867188 234.214844 287.277344 C 234.648438 286.691406 235.125 286.855469 235.160156 287.507812 C 235.195312 288.160156 235.886719 288.871094 236.648438 289.109375 C 237.402344 289.253906 239.742188 289.316406 240.449219 288.53125 L 240.535156 288.433594 C 241.238281 287.554688 241.433594 287.730469 241.015625 288.6875 L 240.929688 288.785156 C 240.511719 289.742188 240.671875 290.949219 241.15625 291.296875 C 241.15625 291.296875 241.15625 291.296875 241.648438 291.738281 C 242.339844 292.449219 242.445312 292.628906 242.445312 292.628906 C 243.140625 293.433594 243.648438 294.15625 243.648438 294.15625 C 243.648438 294.15625 243.953125 294.605469 244.359375 295.238281 C 244.761719 295.777344 246.230469 297.007812 246.855469 296.507812 C 247.484375 296.003906 247.59375 296.28125 247.265625 297.140625 C 246.84375 298.003906 246.714844 299.039062 247.011719 299.398438 C 247.222656 299.851562 248.460938 300.253906 249.164062 299.46875 L 250.226562 298.382812 C 250.933594 297.597656 251.320312 297.855469 250.90625 298.8125 L 249.855469 301.863281 C 249.539062 302.90625 249.625 304.492188 250.050781 305.5 C 250.050781 305.5 250.882812 307.042969 251.101562 307.683594 C 251.324219 308.328125 251.769531 309.613281 252.101562 310.625 L 254.777344 320.390625 C 255.019531 321.40625 255.675781 321.464844 256.089844 320.507812 L 258.710938 313.632812 C 259.125 312.675781 259.683594 312.644531 259.925781 313.660156 L 265.734375 329.523438 C 266.160156 330.53125 266.527344 330.417969 266.378906 329.394531 L 264.453125 312.667969 C 264.304688 311.648438 264.484375 311.546875 264.820312 312.554688 L 276.085938 336.167969 C 276.605469 337.074219 276.789062 337.0625 276.636719 335.949219 L 271.34375 315.757812 C 271.011719 314.746094 271.101562 314.742188 271.527344 315.65625 L 283.015625 336.449219 C 283.625 337.347656 283.808594 337.246094 283.472656 336.234375 L 275.199219 310.96875 C 274.863281 309.957031 274.957031 309.953125 275.472656 310.859375 L 293.25 339.074219 C 293.855469 339.976562 294.039062 339.875 293.609375 338.867188 L 277.800781 302.039062 C 277.371094 301.035156 277.464844 301.027344 278.070312 301.839844 L 300.925781 334.171875 C 301.535156 335.074219 301.621094 334.976562 301.199219 334.066406 L 280.109375 294.621094 C 279.5 293.71875 279.085938 292.992188 279.085938 292.992188 C 279.085938 292.992188 279.679688 293.617188 280.382812 294.515625 C 280.382812 294.515625 310.796875 331.863281 315.457031 333.390625 C 320.214844 335.003906 285.191406 291.824219 285.191406 291.824219 C 284.492188 291.019531 284.082031 290.292969 284.167969 290.195312 C 284.261719 290.191406 285.125 290.613281 285.820312 291.414062 L 320.785156 323.003906 C 321.65625 323.613281 323.796875 323.402344 323.097656 322.601562 L 295.730469 293.21875 C 294.945312 292.515625 295.121094 292.316406 295.988281 292.832031 L 299.746094 294.964844 C 300.707031 295.476562 302.160156 296.425781 302.945312 297.132812 C 302.945312 297.132812 313.582031 305.535156 317.558594 308.21875 C 325.414062 313.59375 334.691406 314.121094 334.691406 314.121094 C 335.722656 314.160156 335.882812 313.683594 335.011719 313.074219 Z M 215.84375 195.980469 C 216.121094 195.964844 216.3125 196.050781 216.316406 196.144531 C 216.324219 196.234375 216.046875 196.34375 215.765625 196.265625 C 215.484375 196.28125 215.292969 196.199219 215.289062 196.105469 C 215.375 196.007812 215.5625 195.996094 215.84375 195.980469 Z M 202.761719 192.480469 C 203.128906 192.367188 203.789062 192.515625 204.546875 192.664062 C 203.992188 192.785156 203.457031 193.28125 203.398438 193.941406 C 203.351562 194.785156 203.953125 195.5 204.703125 195.554688 C 205.546875 195.601562 206.261719 195 206.3125 194.25 C 206.382812 193.78125 206.175781 193.417969 205.875 193.058594 C 207.203125 193.453125 208.351562 193.953125 208.351562 193.953125 C 208.351562 193.953125 206.644531 196.945312 203.839844 196.910156 C 201.035156 196.871094 201.464844 192.734375 202.761719 192.480469 Z M 185.371094 193.976562 C 185.371094 193.976562 184.417969 204.03125 191.050781 204.050781 C 184.136719 207.507812 181.546875 202.785156 185.371094 193.976562 Z M 185.371094 193.976562 " fill-opacity="1" fill-rule="nonzero"/></g></g></g></svg>