<svg xmlns="http://www.w3.org/2000/svg" xmlns:xlink="http://www.w3.org/1999/xlink" width="64" zoomAndPan="magnify" viewBox="0 0 48 48" height="64" preserveAspectRatio="xMidYMid meet" version="1.0"><defs><clipPath id="ec7da5aa76"><path d="M 3.78125 0 L 44.1875 0 L 44.1875 47.019531 L 3.78125 47.019531 Z M 3.78125 0 " clip-rule="nonzero"/></clipPath></defs><g clip-path="url(#ec7da5aa76)"><path fill="#34a853" d="M 43.964844 12.757812 L 43.964844 12.722656 C 43.945312 12.269531 43.929688 11.792969 43.921875 11.261719 C 43.882812 8.667969 41.824219 6.523438 39.230469 6.378906 C 33.828125 6.078125 29.648438 4.3125 26.078125 0.832031 L 26.046875 0.800781 C 24.882812 -0.265625 23.125 -0.265625 21.960938 0.800781 L 21.929688 0.832031 C 18.359375 4.3125 14.179688 6.078125 8.777344 6.378906 C 6.183594 6.523438 4.125 8.667969 4.085938 11.261719 C 4.078125 11.789062 4.0625 12.265625 4.042969 12.722656 L 4.042969 12.804688 C 3.9375 18.320312 3.804688 25.179688 6.101562 31.40625 C 7.359375 34.832031 9.269531 37.808594 11.777344 40.253906 C 14.632812 43.042969 18.367188 45.253906 22.886719 46.832031 C 23.035156 46.882812 23.1875 46.921875 23.34375 46.953125 C 23.5625 47 23.78125 47.019531 24.003906 47.019531 C 24.226562 47.019531 24.445312 47 24.664062 46.953125 C 24.820312 46.921875 24.972656 46.882812 25.121094 46.828125 C 29.636719 45.25 33.367188 43.035156 36.21875 40.25 C 38.726562 37.804688 40.636719 34.824219 41.898438 31.402344 C 44.199219 25.15625 44.070312 18.28125 43.964844 12.757812 Z M 39.3125 30.445312 C 36.890625 37.007812 31.953125 41.515625 24.210938 44.226562 C 24.183594 44.234375 24.15625 44.242188 24.125 44.25 C 24.042969 44.265625 23.964844 44.265625 23.882812 44.25 C 23.851562 44.242188 23.824219 44.234375 23.796875 44.226562 C 16.046875 41.523438 11.105469 37.015625 8.6875 30.453125 C 6.574219 24.710938 6.691406 18.414062 6.796875 12.859375 L 6.800781 12.828125 C 6.820312 12.351562 6.835938 11.851562 6.84375 11.300781 C 6.859375 10.148438 7.777344 9.195312 8.929688 9.132812 C 11.988281 8.960938 14.671875 8.371094 17.140625 7.324219 C 19.605469 6.28125 21.796875 4.808594 23.832031 2.828125 C 23.9375 2.738281 24.070312 2.738281 24.175781 2.828125 C 26.210938 4.808594 28.402344 6.28125 30.867188 7.324219 C 33.335938 8.371094 36.019531 8.960938 39.078125 9.132812 C 40.230469 9.195312 41.148438 10.148438 41.164062 11.300781 C 41.171875 11.855469 41.1875 12.355469 41.207031 12.828125 C 41.3125 18.390625 41.429688 24.695312 39.3125 30.445312 Z M 39.3125 30.445312 " fill-opacity="1" fill-rule="nonzero"/></g><path fill="#34a853" d="M 24.003906 11.792969 C 17.546875 11.792969 12.292969 17.050781 12.292969 23.511719 C 12.292969 29.972656 17.546875 35.230469 24.003906 35.230469 C 30.460938 35.230469 35.714844 29.972656 35.714844 23.511719 C 35.714844 17.050781 30.460938 11.792969 24.003906 11.792969 Z M 24.003906 32.46875 C 19.066406 32.46875 15.050781 28.449219 15.050781 23.511719 C 15.050781 18.570312 19.066406 14.550781 24.003906 14.550781 C 28.941406 14.550781 32.957031 18.570312 32.957031 23.511719 C 32.957031 28.449219 28.941406 32.46875 24.003906 32.46875 Z M 24.003906 32.46875 " fill-opacity="1" fill-rule="nonzero"/><path fill="#34a853" d="M 27.367188 19.871094 L 21.929688 25.316406 L 20.453125 23.839844 C 19.914062 23.300781 19.042969 23.300781 18.503906 23.839844 C 17.964844 24.378906 17.964844 25.25 18.503906 25.789062 L 20.953125 28.242188 C 21.222656 28.511719 21.578125 28.644531 21.929688 28.644531 C 22.28125 28.644531 22.636719 28.511719 22.902344 28.242188 L 29.320312 21.824219 C 29.855469 21.285156 29.855469 20.410156 29.320312 19.871094 C 28.78125 19.332031 27.90625 19.332031 27.367188 19.871094 Z M 27.367188 19.871094 " fill-opacity="1" fill-rule="nonzero"/></svg>